<?xml version="1.0" encoding="utf-8"?>
<!-- Generator: Adobe Illustrator 28.0.0, SVG Export Plug-In . SVG Version: 6.00 Build 0)  -->
<svg version="1.1" id="Layer_1" xmlns="http://www.w3.org/2000/svg" xmlns:xlink="http://www.w3.org/1999/xlink" x="0px"
	y="0px" viewBox="0 0 685.8 1080" style="enable-background:new 0 0 685.8 1080;" xml:space="preserve">
	<style type="text/css">
	</style>
	<g class="IndiGrup" id="IndiGrup">
		<g class="colorkey">
			<path class="keyTop" id="keyTop" d="M678.3,7.3l0,219.5l-51.7,0l0-160.3c0-7.2,3.4-15.1,8.5-20.1l-0.3-0.3c-5,5-12.8,8.5-20,8.5l-156,0V7.3
	L678.3,7.3z" />
		</g>
		<g class="LAB" id="LAB">
			<g class="colorkey">
				<path class="st0"
					d="M13.3,1075V852.5h52.4v162.4c0,7.3-3.5,15.3-8.6,20.3l0.3,0.3c5.1-5.1,13-8.6,20.3-8.6h119.8v48H13.3z" />
			</g>

			<path class="st0" d="M296.8,852.5h67.7l83.9,222.5h-56.3l-17.8-42H286l-16.2,42h-56.9L296.8,852.5z M300,990.1
		c24.5,0,35.3-0.3,45.5,3.2c10.2,3.2,19.1,18.8,26.7,32.1l-42.3-113.5L300,990.1z" />
			<path class="st0" d="M462.7,1075V852.5h114.7c48.3,0,79.5,16.8,79.5,55.6c0,10.8-9.5,25.7-29.2,34c-4.8,2.2-11.8,2.9-17.2,3.2v0.6
		c5.4-0.3,12.4-0.3,17.5,1.3c30.8,8.6,40.4,28,40.4,60.7c0,47.4-30.5,67.1-81.4,67.1H462.7z M515.5,944.7h72.1
		c18.4,0,27.3-7,27.3-22.9c0-15.9-15.3-22.6-32.1-22.6h-67.4V944.7z M515.5,1027.3h76.6c15.6,0,27.3-8.6,27.3-23.2
		c0-12.4-9.2-20.3-24.5-20.3h-79.5V1027.3z" />
		</g>
		<g class="INDI" id="INDI">
			<path class="st0" d="M7.5,5h52.1v220.8H7.5V5z" />
			<path class="st0" d="M78.5,5h54.3l105.4,131.9c5.4,6.6,10.4,16.4,13.2,24.6l0.6-0.3c-2.8-7.9-5-18.9-5-27.4V5H299v220.8h-54.3
		L139.7,94.9c-5.4-6.6-10.7-16.7-13.6-24.6h-0.6c2.8,8.2,5,19.2,5,27.8v127.8H78.5V5z" />
			<path class="st0"
				d="M116.7,241.9c61.5,0,112.3,35.3,112.3,110.4c0,75.1-50.8,110.4-112.3,110.4H7.5V241.9H116.7z M59.9,300
		c0,8.8,0,72.6,0,115.1h61.2c22.7,0,55.5-18.6,55.5-62.8c0-42.6-32.5-62.8-55.5-62.8H29.9C41.6,289.5,59.9,290.2,59.9,300z" />
			<path class="st0" d="M247.6,241.9h52.1v220.8h-52.1V241.9z" />
		</g>
	</g>
</svg>