<?xml version="1.0" encoding="utf-8"?>
<!-- Generator: Adobe Illustrator 28.0.0, SVG Export Plug-In . SVG Version: 6.00 Build 0)  -->
<svg version="1.1" id="Layer_1" xmlns="http://www.w3.org/2000/svg" xmlns:xlink="http://www.w3.org/1999/xlink" x="0px"
	y="0px" viewBox="0 0 1080 1080" style="enable-background:new 0 0 1080 1080;" xml:space="preserve">
	<style type="text/css">
	</style>
	<g class="IndiGrup" id="IndiGrup">
		<g class="colorkey">

			<path class="keyButton" id="keyButton"
				d="M205.8,1075l0-268.7h64.8v192.8c0,8.3-3.9,17.3-9.6,23l0.4,0.4c5.7-5.8,14.6-9.7,22.8-9.7H474v62.2H205.8z" />
			<path class="keyTop" id="keyTop"
				d="M874.2,5v268.7h-64.8V80.9c0-8.3,3.9-17.3,9.6-23l-0.4-0.4c-5.7,5.8-14.6,9.7-22.8,9.7l-189.9,0V5L874.2,5z" />
		</g>
		<g class="LAB" id="LAB">
			<path d="M347.3,909.9V779.1h30.8v95.5c0,4.3-2.1,9-5,12l0.2,0.2c3-3,7.7-5,12-5h70.4v28.2H347.3z" />
			<path d="M513.9,779.1h39.8L603,909.9H570l-10.5-24.7h-51.9l-9.5,24.7h-33.4L513.9,779.1z M515.8,860
				c14.4,0,20.7-0.2,26.7,1.9c6,1.9,11.2,11,15.7,18.9L533.4,814L515.8,860z" />
			<path d="M611.4,909.9V779.1h67.4c28.4,0,46.7,9.9,46.7,32.7c0,6.4-5.6,15.1-17.2,20c-2.8,1.3-6.9,1.7-10.1,1.9v0.4
				c3.2-0.2,7.3-0.2,10.3,0.7c18.1,5,23.7,16.4,23.7,35.7c0,27.8-17.9,39.4-47.8,39.4H611.4z M642.4,833.3h42.4
				c10.8,0,16.1-4.1,16.1-13.5c0-9.3-9-13.3-18.9-13.3h-39.6V833.3z M642.4,881.8h45c9.2,0,16.1-5,16.1-13.6c0-7.3-5.4-12-14.4-12
				h-46.7V881.8z" />
		</g>
		<g class="INDI" id="INDI">

			<path d="M346.3,169.1h63.3v268.4h-63.3V169.1z" />
			<path d="M432.5,169.1h65.9l128.1,160.3c6.5,8.1,12.7,19.9,16.1,29.9l0.8-0.4c-3.5-9.6-6.1-23-6.1-33.4V169.1h63.3
				v268.4h-65.9L506.9,278.4c-6.5-8.1-13-20.3-16.5-29.9h-0.8c3.5,10,6.1,23.4,6.1,33.7v155.3h-63.3V169.1z" />
			<path
				d="M478.9,470.1c74.8,0,136.5,42.9,136.5,134.2s-61.7,134.2-136.5,134.2H346.3V470.1H478.9z M409.9,540.7
				c0,10.7,0,88.2,0,140h74.4c27.6,0,67.5-22.6,67.5-76.3c0-51.8-39.5-76.3-67.5-76.3H373.5C387.7,528,409.9,528.8,409.9,540.7z" />
			<path d="M638,470.1h63.3v268.4H638V470.1z" />
		</g>
	</g>
</svg>