<?xml version="1.0" encoding="utf-8"?>
<!-- Generator: Adobe Illustrator 28.0.0, SVG Export Plug-In . SVG Version: 6.00 Build 0)  -->
<svg version="1.1" id="Layer_1" xmlns="http://www.w3.org/2000/svg" xmlns:xlink="http://www.w3.org/1999/xlink" x="0px"
	y="0px" viewBox="0 0 1080 1080" style="enable-background:new 0 0 1080 1080;" xml:space="preserve">
	<style type="text/css">

	</style>
	<g class="IndiGrup" id="IndiGrup">

		<g class="colorkey">
			<path class="keyButton" id="keyButton"
				d="M5,869.3l0-248.4h46l0,190.3c0,7.7-3.6,16-8.9,21.3l0.3,0.3c5.3-5.3,13.6-9,21.2-9h189.4v45.5L5,869.3z" />
			<path class="keyTop" id="keyTop"
				d="M1075,210.7v248.4h-46V268.8c0-7.7,3.6-16,8.9-21.3l-0.3-0.3c-5.3,5.3-13.6,9-21.2,9H827.1v-45.5L1075,210.7z" />
		</g>
		<g class="LAB" id="LAB">
			<path
				d="M506.1,745.7V606.1H539V708c0,4.6-2.2,9.6-5.4,12.8l0.2,0.2c3.2-3.2,8.2-5.4,12.8-5.4h75.2v30.1H506.1z" />
			<path d="M684,606.1h42.5l52.7,139.6h-35.3l-11.2-26.3h-55.4L667,745.7h-35.7L684,606.1z M686,692.4
				c15.4,0,22.1-0.2,28.5,2c6.4,2,12,11.8,16.8,20.1l-26.5-71.2L686,692.4z" />
			<path d="M788.1,745.7V606.1h72c30.3,0,49.9,10.6,49.9,34.9c0,6.8-6,16.2-18.3,21.3c-3,1.4-7.4,1.8-10.8,2v0.4
				c3.4-0.2,7.8-0.2,11,0.8c19.3,5.4,25.3,17.6,25.3,38.1c0,29.7-19.1,42.1-51.1,42.1H788.1z M821.2,663.9h45.3
				c11.6,0,17.2-4.4,17.2-14.4c0-10-9.6-14.2-20.1-14.2h-42.3V663.9z M821.2,715.8h48.1c9.8,0,17.2-5.4,17.2-14.6
				c0-7.8-5.8-12.8-15.4-12.8h-49.9V715.8z" />
		</g>
		<g class="INDI" id="INDI">
			<path d="M161.7,332.8h45.9v194.6h-45.9V332.8z" />
			<path d="M224.2,332.8H272L364.9,449c4.7,5.8,9.2,14.5,11.7,21.7l0.6-0.3c-2.5-7-4.4-16.7-4.4-24.2V332.8h45.9v194.6
				h-47.8L278.2,412c-4.7-5.8-9.5-14.7-12-21.7h-0.6c2.5,7.2,4.4,17,4.4,24.5v112.6h-45.9V332.8z" />
			<path d="M257.9,551c54.2,0,99,31.1,99,97.3s-44.8,97.3-99,97.3h-96.2V551H257.9z M207.8,602.2c0,7.8,0,64,0,101.5
				h53.9c20,0,48.9-16.4,48.9-55.3c0-37.5-28.6-55.3-48.9-55.3h-80.4C191.7,593,207.8,593.6,207.8,602.2z" />
			<path d="M373.2,551h45.9v194.6h-45.9V551z" />
		</g>
	</g>
</svg>