<?xml version="1.0" encoding="utf-8"?>
<!-- Generator: Adobe Illustrator 28.0.0, SVG Export Plug-In . SVG Version: 6.00 Build 0)  -->
<svg version="1.1" id="Layer_1" xmlns="http://www.w3.org/2000/svg" xmlns:xlink="http://www.w3.org/1999/xlink" x="0px"
	y="0px" viewBox="0 0 1080 1080" style="enable-background:new 0 0 1080 1080;" xml:space="preserve">
	<style type="text/css">
	</style>



	<g class="IndiGrup" id="IndiGrup">

		<g class="colorkey">
			<path class="keyTop" id="keyTop" d="M1061.7,209.8l0,398.5h-74.9l0-303.5c0-12.4,5.9-25.8,14.4-34.4l-0.5-0.5c-8.5,8.6-21.8,14.5-34.1,14.5
		l-299.4,0v-74.6L1061.7,209.8z" />
		</g>


		<g class="LAB" id="LAB">
			<path
				d="M504.1,870.2V676.3h45.7v141.5c0,6.4-3,13.3-7.5,17.7l0.3,0.3c4.4-4.4,11.4-7.5,17.7-7.5h104.4v41.8H504.1z" />
			<path d="M751.2,676.3h59l73.1,193.9h-49l-15.5-36.6h-77l-14.1,36.6h-49.6L751.2,676.3z M754,796.3
		c21.3,0,30.7-0.3,39.6,2.8c8.9,2.8,16.6,16.3,23.3,28L780,728.1L754,796.3z" />
			<path d="M895.8,870.2V676.3h100c42.1,0,69.2,14.7,69.2,48.5c0,9.4-8.3,22.4-25.5,29.6c-4.2,1.9-10.2,2.5-15,2.8v0.6
		c4.7-0.3,10.8-0.3,15.2,1.1c26.9,7.5,35.2,24.4,35.2,52.9c0,41.3-26.6,58.4-70.9,58.4H895.8z M941.8,756.7h62.9
		c16.1,0,23.8-6.1,23.8-19.9c0-13.8-13.3-19.7-28-19.7h-58.7V756.7z M941.8,828.7h66.8c13.6,0,23.8-7.5,23.8-20.2
		c0-10.8-8-17.7-21.3-17.7h-69.2V828.7z" />
		</g>


		<g class="INDI" id="INDI">

			<path d="M5,209.8h73.2v310.7H5V209.8z" />
			<path d="M104.9,209.8h76.3l148.3,185.5c7.5,9.3,14.6,23.1,18.6,34.6l0.9-0.4c-4-11.1-7.1-26.6-7.1-38.6V209.8h73.2
		v310.7h-76.3L191,336.3c-7.5-9.3-15.1-23.5-19.1-34.6H171c4,11.5,7.1,27.1,7.1,39.1v179.8h-73.2V209.8z" />
			<path
				d="M158.6,558.2c86.6,0,158,49.7,158,155.4s-71.5,155.4-158,155.4H5V558.2H158.6z M78.7,639.9
		c0,12.4,0,102.1,0,162h86.1c32,0,78.1-26.2,78.1-88.3c0-59.9-45.7-88.3-78.1-88.3H36.5C52.9,625.2,78.7,626.1,78.7,639.9z" />
			<path d="M342.8,558.2H416v310.7h-73.2V558.2z" />
		</g>
	</g>

</svg>